G04 #@! TF.GenerationSoftware,KiCad,Pcbnew,5.1.5*
G04 #@! TF.CreationDate,2020-03-20T22:46:19-05:00*
G04 #@! TF.ProjectId,Reflow,5265666c-6f77-42e6-9b69-6361645f7063,rev?*
G04 #@! TF.SameCoordinates,Original*
G04 #@! TF.FileFunction,Paste,Top*
G04 #@! TF.FilePolarity,Positive*
%FSLAX46Y46*%
G04 Gerber Fmt 4.6, Leading zero omitted, Abs format (unit mm)*
G04 Created by KiCad (PCBNEW 5.1.5) date 2020-03-20 22:46:19*
%MOMM*%
%LPD*%
G04 APERTURE LIST*
%ADD10C,0.100000*%
%ADD11R,0.300000X1.000000*%
%ADD12R,0.500000X0.800000*%
%ADD13R,0.400000X0.800000*%
%ADD14R,1.550000X1.300000*%
%ADD15R,0.800000X0.500000*%
%ADD16R,0.800000X0.400000*%
G04 APERTURE END LIST*
D10*
G36*
X204617642Y-66976174D02*
G01*
X204641303Y-66979684D01*
X204664507Y-66985496D01*
X204687029Y-66993554D01*
X204708653Y-67003782D01*
X204729170Y-67016079D01*
X204748383Y-67030329D01*
X204766107Y-67046393D01*
X204782171Y-67064117D01*
X204796421Y-67083330D01*
X204808718Y-67103847D01*
X204818946Y-67125471D01*
X204827004Y-67147993D01*
X204832816Y-67171197D01*
X204836326Y-67194858D01*
X204837500Y-67218750D01*
X204837500Y-68131250D01*
X204836326Y-68155142D01*
X204832816Y-68178803D01*
X204827004Y-68202007D01*
X204818946Y-68224529D01*
X204808718Y-68246153D01*
X204796421Y-68266670D01*
X204782171Y-68285883D01*
X204766107Y-68303607D01*
X204748383Y-68319671D01*
X204729170Y-68333921D01*
X204708653Y-68346218D01*
X204687029Y-68356446D01*
X204664507Y-68364504D01*
X204641303Y-68370316D01*
X204617642Y-68373826D01*
X204593750Y-68375000D01*
X204106250Y-68375000D01*
X204082358Y-68373826D01*
X204058697Y-68370316D01*
X204035493Y-68364504D01*
X204012971Y-68356446D01*
X203991347Y-68346218D01*
X203970830Y-68333921D01*
X203951617Y-68319671D01*
X203933893Y-68303607D01*
X203917829Y-68285883D01*
X203903579Y-68266670D01*
X203891282Y-68246153D01*
X203881054Y-68224529D01*
X203872996Y-68202007D01*
X203867184Y-68178803D01*
X203863674Y-68155142D01*
X203862500Y-68131250D01*
X203862500Y-67218750D01*
X203863674Y-67194858D01*
X203867184Y-67171197D01*
X203872996Y-67147993D01*
X203881054Y-67125471D01*
X203891282Y-67103847D01*
X203903579Y-67083330D01*
X203917829Y-67064117D01*
X203933893Y-67046393D01*
X203951617Y-67030329D01*
X203970830Y-67016079D01*
X203991347Y-67003782D01*
X204012971Y-66993554D01*
X204035493Y-66985496D01*
X204058697Y-66979684D01*
X204082358Y-66976174D01*
X204106250Y-66975000D01*
X204593750Y-66975000D01*
X204617642Y-66976174D01*
G37*
G36*
X202742642Y-66976174D02*
G01*
X202766303Y-66979684D01*
X202789507Y-66985496D01*
X202812029Y-66993554D01*
X202833653Y-67003782D01*
X202854170Y-67016079D01*
X202873383Y-67030329D01*
X202891107Y-67046393D01*
X202907171Y-67064117D01*
X202921421Y-67083330D01*
X202933718Y-67103847D01*
X202943946Y-67125471D01*
X202952004Y-67147993D01*
X202957816Y-67171197D01*
X202961326Y-67194858D01*
X202962500Y-67218750D01*
X202962500Y-68131250D01*
X202961326Y-68155142D01*
X202957816Y-68178803D01*
X202952004Y-68202007D01*
X202943946Y-68224529D01*
X202933718Y-68246153D01*
X202921421Y-68266670D01*
X202907171Y-68285883D01*
X202891107Y-68303607D01*
X202873383Y-68319671D01*
X202854170Y-68333921D01*
X202833653Y-68346218D01*
X202812029Y-68356446D01*
X202789507Y-68364504D01*
X202766303Y-68370316D01*
X202742642Y-68373826D01*
X202718750Y-68375000D01*
X202231250Y-68375000D01*
X202207358Y-68373826D01*
X202183697Y-68370316D01*
X202160493Y-68364504D01*
X202137971Y-68356446D01*
X202116347Y-68346218D01*
X202095830Y-68333921D01*
X202076617Y-68319671D01*
X202058893Y-68303607D01*
X202042829Y-68285883D01*
X202028579Y-68266670D01*
X202016282Y-68246153D01*
X202006054Y-68224529D01*
X201997996Y-68202007D01*
X201992184Y-68178803D01*
X201988674Y-68155142D01*
X201987500Y-68131250D01*
X201987500Y-67218750D01*
X201988674Y-67194858D01*
X201992184Y-67171197D01*
X201997996Y-67147993D01*
X202006054Y-67125471D01*
X202016282Y-67103847D01*
X202028579Y-67083330D01*
X202042829Y-67064117D01*
X202058893Y-67046393D01*
X202076617Y-67030329D01*
X202095830Y-67016079D01*
X202116347Y-67003782D01*
X202137971Y-66993554D01*
X202160493Y-66985496D01*
X202183697Y-66979684D01*
X202207358Y-66976174D01*
X202231250Y-66975000D01*
X202718750Y-66975000D01*
X202742642Y-66976174D01*
G37*
G36*
X224992642Y-66976174D02*
G01*
X225016303Y-66979684D01*
X225039507Y-66985496D01*
X225062029Y-66993554D01*
X225083653Y-67003782D01*
X225104170Y-67016079D01*
X225123383Y-67030329D01*
X225141107Y-67046393D01*
X225157171Y-67064117D01*
X225171421Y-67083330D01*
X225183718Y-67103847D01*
X225193946Y-67125471D01*
X225202004Y-67147993D01*
X225207816Y-67171197D01*
X225211326Y-67194858D01*
X225212500Y-67218750D01*
X225212500Y-68131250D01*
X225211326Y-68155142D01*
X225207816Y-68178803D01*
X225202004Y-68202007D01*
X225193946Y-68224529D01*
X225183718Y-68246153D01*
X225171421Y-68266670D01*
X225157171Y-68285883D01*
X225141107Y-68303607D01*
X225123383Y-68319671D01*
X225104170Y-68333921D01*
X225083653Y-68346218D01*
X225062029Y-68356446D01*
X225039507Y-68364504D01*
X225016303Y-68370316D01*
X224992642Y-68373826D01*
X224968750Y-68375000D01*
X224481250Y-68375000D01*
X224457358Y-68373826D01*
X224433697Y-68370316D01*
X224410493Y-68364504D01*
X224387971Y-68356446D01*
X224366347Y-68346218D01*
X224345830Y-68333921D01*
X224326617Y-68319671D01*
X224308893Y-68303607D01*
X224292829Y-68285883D01*
X224278579Y-68266670D01*
X224266282Y-68246153D01*
X224256054Y-68224529D01*
X224247996Y-68202007D01*
X224242184Y-68178803D01*
X224238674Y-68155142D01*
X224237500Y-68131250D01*
X224237500Y-67218750D01*
X224238674Y-67194858D01*
X224242184Y-67171197D01*
X224247996Y-67147993D01*
X224256054Y-67125471D01*
X224266282Y-67103847D01*
X224278579Y-67083330D01*
X224292829Y-67064117D01*
X224308893Y-67046393D01*
X224326617Y-67030329D01*
X224345830Y-67016079D01*
X224366347Y-67003782D01*
X224387971Y-66993554D01*
X224410493Y-66985496D01*
X224433697Y-66979684D01*
X224457358Y-66976174D01*
X224481250Y-66975000D01*
X224968750Y-66975000D01*
X224992642Y-66976174D01*
G37*
G36*
X223117642Y-66976174D02*
G01*
X223141303Y-66979684D01*
X223164507Y-66985496D01*
X223187029Y-66993554D01*
X223208653Y-67003782D01*
X223229170Y-67016079D01*
X223248383Y-67030329D01*
X223266107Y-67046393D01*
X223282171Y-67064117D01*
X223296421Y-67083330D01*
X223308718Y-67103847D01*
X223318946Y-67125471D01*
X223327004Y-67147993D01*
X223332816Y-67171197D01*
X223336326Y-67194858D01*
X223337500Y-67218750D01*
X223337500Y-68131250D01*
X223336326Y-68155142D01*
X223332816Y-68178803D01*
X223327004Y-68202007D01*
X223318946Y-68224529D01*
X223308718Y-68246153D01*
X223296421Y-68266670D01*
X223282171Y-68285883D01*
X223266107Y-68303607D01*
X223248383Y-68319671D01*
X223229170Y-68333921D01*
X223208653Y-68346218D01*
X223187029Y-68356446D01*
X223164507Y-68364504D01*
X223141303Y-68370316D01*
X223117642Y-68373826D01*
X223093750Y-68375000D01*
X222606250Y-68375000D01*
X222582358Y-68373826D01*
X222558697Y-68370316D01*
X222535493Y-68364504D01*
X222512971Y-68356446D01*
X222491347Y-68346218D01*
X222470830Y-68333921D01*
X222451617Y-68319671D01*
X222433893Y-68303607D01*
X222417829Y-68285883D01*
X222403579Y-68266670D01*
X222391282Y-68246153D01*
X222381054Y-68224529D01*
X222372996Y-68202007D01*
X222367184Y-68178803D01*
X222363674Y-68155142D01*
X222362500Y-68131250D01*
X222362500Y-67218750D01*
X222363674Y-67194858D01*
X222367184Y-67171197D01*
X222372996Y-67147993D01*
X222381054Y-67125471D01*
X222391282Y-67103847D01*
X222403579Y-67083330D01*
X222417829Y-67064117D01*
X222433893Y-67046393D01*
X222451617Y-67030329D01*
X222470830Y-67016079D01*
X222491347Y-67003782D01*
X222512971Y-66993554D01*
X222535493Y-66985496D01*
X222558697Y-66979684D01*
X222582358Y-66976174D01*
X222606250Y-66975000D01*
X223093750Y-66975000D01*
X223117642Y-66976174D01*
G37*
G36*
X183405142Y-212988674D02*
G01*
X183428803Y-212992184D01*
X183452007Y-212997996D01*
X183474529Y-213006054D01*
X183496153Y-213016282D01*
X183516670Y-213028579D01*
X183535883Y-213042829D01*
X183553607Y-213058893D01*
X183569671Y-213076617D01*
X183583921Y-213095830D01*
X183596218Y-213116347D01*
X183606446Y-213137971D01*
X183614504Y-213160493D01*
X183620316Y-213183697D01*
X183623826Y-213207358D01*
X183625000Y-213231250D01*
X183625000Y-213718750D01*
X183623826Y-213742642D01*
X183620316Y-213766303D01*
X183614504Y-213789507D01*
X183606446Y-213812029D01*
X183596218Y-213833653D01*
X183583921Y-213854170D01*
X183569671Y-213873383D01*
X183553607Y-213891107D01*
X183535883Y-213907171D01*
X183516670Y-213921421D01*
X183496153Y-213933718D01*
X183474529Y-213943946D01*
X183452007Y-213952004D01*
X183428803Y-213957816D01*
X183405142Y-213961326D01*
X183381250Y-213962500D01*
X182468750Y-213962500D01*
X182444858Y-213961326D01*
X182421197Y-213957816D01*
X182397993Y-213952004D01*
X182375471Y-213943946D01*
X182353847Y-213933718D01*
X182333330Y-213921421D01*
X182314117Y-213907171D01*
X182296393Y-213891107D01*
X182280329Y-213873383D01*
X182266079Y-213854170D01*
X182253782Y-213833653D01*
X182243554Y-213812029D01*
X182235496Y-213789507D01*
X182229684Y-213766303D01*
X182226174Y-213742642D01*
X182225000Y-213718750D01*
X182225000Y-213231250D01*
X182226174Y-213207358D01*
X182229684Y-213183697D01*
X182235496Y-213160493D01*
X182243554Y-213137971D01*
X182253782Y-213116347D01*
X182266079Y-213095830D01*
X182280329Y-213076617D01*
X182296393Y-213058893D01*
X182314117Y-213042829D01*
X182333330Y-213028579D01*
X182353847Y-213016282D01*
X182375471Y-213006054D01*
X182397993Y-212997996D01*
X182421197Y-212992184D01*
X182444858Y-212988674D01*
X182468750Y-212987500D01*
X183381250Y-212987500D01*
X183405142Y-212988674D01*
G37*
G36*
X183405142Y-214863674D02*
G01*
X183428803Y-214867184D01*
X183452007Y-214872996D01*
X183474529Y-214881054D01*
X183496153Y-214891282D01*
X183516670Y-214903579D01*
X183535883Y-214917829D01*
X183553607Y-214933893D01*
X183569671Y-214951617D01*
X183583921Y-214970830D01*
X183596218Y-214991347D01*
X183606446Y-215012971D01*
X183614504Y-215035493D01*
X183620316Y-215058697D01*
X183623826Y-215082358D01*
X183625000Y-215106250D01*
X183625000Y-215593750D01*
X183623826Y-215617642D01*
X183620316Y-215641303D01*
X183614504Y-215664507D01*
X183606446Y-215687029D01*
X183596218Y-215708653D01*
X183583921Y-215729170D01*
X183569671Y-215748383D01*
X183553607Y-215766107D01*
X183535883Y-215782171D01*
X183516670Y-215796421D01*
X183496153Y-215808718D01*
X183474529Y-215818946D01*
X183452007Y-215827004D01*
X183428803Y-215832816D01*
X183405142Y-215836326D01*
X183381250Y-215837500D01*
X182468750Y-215837500D01*
X182444858Y-215836326D01*
X182421197Y-215832816D01*
X182397993Y-215827004D01*
X182375471Y-215818946D01*
X182353847Y-215808718D01*
X182333330Y-215796421D01*
X182314117Y-215782171D01*
X182296393Y-215766107D01*
X182280329Y-215748383D01*
X182266079Y-215729170D01*
X182253782Y-215708653D01*
X182243554Y-215687029D01*
X182235496Y-215664507D01*
X182229684Y-215641303D01*
X182226174Y-215617642D01*
X182225000Y-215593750D01*
X182225000Y-215106250D01*
X182226174Y-215082358D01*
X182229684Y-215058697D01*
X182235496Y-215035493D01*
X182243554Y-215012971D01*
X182253782Y-214991347D01*
X182266079Y-214970830D01*
X182280329Y-214951617D01*
X182296393Y-214933893D01*
X182314117Y-214917829D01*
X182333330Y-214903579D01*
X182353847Y-214891282D01*
X182375471Y-214881054D01*
X182397993Y-214872996D01*
X182421197Y-214867184D01*
X182444858Y-214863674D01*
X182468750Y-214862500D01*
X183381250Y-214862500D01*
X183405142Y-214863674D01*
G37*
G36*
X206067642Y-200176174D02*
G01*
X206091303Y-200179684D01*
X206114507Y-200185496D01*
X206137029Y-200193554D01*
X206158653Y-200203782D01*
X206179170Y-200216079D01*
X206198383Y-200230329D01*
X206216107Y-200246393D01*
X206232171Y-200264117D01*
X206246421Y-200283330D01*
X206258718Y-200303847D01*
X206268946Y-200325471D01*
X206277004Y-200347993D01*
X206282816Y-200371197D01*
X206286326Y-200394858D01*
X206287500Y-200418750D01*
X206287500Y-201331250D01*
X206286326Y-201355142D01*
X206282816Y-201378803D01*
X206277004Y-201402007D01*
X206268946Y-201424529D01*
X206258718Y-201446153D01*
X206246421Y-201466670D01*
X206232171Y-201485883D01*
X206216107Y-201503607D01*
X206198383Y-201519671D01*
X206179170Y-201533921D01*
X206158653Y-201546218D01*
X206137029Y-201556446D01*
X206114507Y-201564504D01*
X206091303Y-201570316D01*
X206067642Y-201573826D01*
X206043750Y-201575000D01*
X205556250Y-201575000D01*
X205532358Y-201573826D01*
X205508697Y-201570316D01*
X205485493Y-201564504D01*
X205462971Y-201556446D01*
X205441347Y-201546218D01*
X205420830Y-201533921D01*
X205401617Y-201519671D01*
X205383893Y-201503607D01*
X205367829Y-201485883D01*
X205353579Y-201466670D01*
X205341282Y-201446153D01*
X205331054Y-201424529D01*
X205322996Y-201402007D01*
X205317184Y-201378803D01*
X205313674Y-201355142D01*
X205312500Y-201331250D01*
X205312500Y-200418750D01*
X205313674Y-200394858D01*
X205317184Y-200371197D01*
X205322996Y-200347993D01*
X205331054Y-200325471D01*
X205341282Y-200303847D01*
X205353579Y-200283330D01*
X205367829Y-200264117D01*
X205383893Y-200246393D01*
X205401617Y-200230329D01*
X205420830Y-200216079D01*
X205441347Y-200203782D01*
X205462971Y-200193554D01*
X205485493Y-200185496D01*
X205508697Y-200179684D01*
X205532358Y-200176174D01*
X205556250Y-200175000D01*
X206043750Y-200175000D01*
X206067642Y-200176174D01*
G37*
G36*
X207942642Y-200176174D02*
G01*
X207966303Y-200179684D01*
X207989507Y-200185496D01*
X208012029Y-200193554D01*
X208033653Y-200203782D01*
X208054170Y-200216079D01*
X208073383Y-200230329D01*
X208091107Y-200246393D01*
X208107171Y-200264117D01*
X208121421Y-200283330D01*
X208133718Y-200303847D01*
X208143946Y-200325471D01*
X208152004Y-200347993D01*
X208157816Y-200371197D01*
X208161326Y-200394858D01*
X208162500Y-200418750D01*
X208162500Y-201331250D01*
X208161326Y-201355142D01*
X208157816Y-201378803D01*
X208152004Y-201402007D01*
X208143946Y-201424529D01*
X208133718Y-201446153D01*
X208121421Y-201466670D01*
X208107171Y-201485883D01*
X208091107Y-201503607D01*
X208073383Y-201519671D01*
X208054170Y-201533921D01*
X208033653Y-201546218D01*
X208012029Y-201556446D01*
X207989507Y-201564504D01*
X207966303Y-201570316D01*
X207942642Y-201573826D01*
X207918750Y-201575000D01*
X207431250Y-201575000D01*
X207407358Y-201573826D01*
X207383697Y-201570316D01*
X207360493Y-201564504D01*
X207337971Y-201556446D01*
X207316347Y-201546218D01*
X207295830Y-201533921D01*
X207276617Y-201519671D01*
X207258893Y-201503607D01*
X207242829Y-201485883D01*
X207228579Y-201466670D01*
X207216282Y-201446153D01*
X207206054Y-201424529D01*
X207197996Y-201402007D01*
X207192184Y-201378803D01*
X207188674Y-201355142D01*
X207187500Y-201331250D01*
X207187500Y-200418750D01*
X207188674Y-200394858D01*
X207192184Y-200371197D01*
X207197996Y-200347993D01*
X207206054Y-200325471D01*
X207216282Y-200303847D01*
X207228579Y-200283330D01*
X207242829Y-200264117D01*
X207258893Y-200246393D01*
X207276617Y-200230329D01*
X207295830Y-200216079D01*
X207316347Y-200203782D01*
X207337971Y-200193554D01*
X207360493Y-200185496D01*
X207383697Y-200179684D01*
X207407358Y-200176174D01*
X207431250Y-200175000D01*
X207918750Y-200175000D01*
X207942642Y-200176174D01*
G37*
G36*
X207905142Y-227401174D02*
G01*
X207928803Y-227404684D01*
X207952007Y-227410496D01*
X207974529Y-227418554D01*
X207996153Y-227428782D01*
X208016670Y-227441079D01*
X208035883Y-227455329D01*
X208053607Y-227471393D01*
X208069671Y-227489117D01*
X208083921Y-227508330D01*
X208096218Y-227528847D01*
X208106446Y-227550471D01*
X208114504Y-227572993D01*
X208120316Y-227596197D01*
X208123826Y-227619858D01*
X208125000Y-227643750D01*
X208125000Y-228556250D01*
X208123826Y-228580142D01*
X208120316Y-228603803D01*
X208114504Y-228627007D01*
X208106446Y-228649529D01*
X208096218Y-228671153D01*
X208083921Y-228691670D01*
X208069671Y-228710883D01*
X208053607Y-228728607D01*
X208035883Y-228744671D01*
X208016670Y-228758921D01*
X207996153Y-228771218D01*
X207974529Y-228781446D01*
X207952007Y-228789504D01*
X207928803Y-228795316D01*
X207905142Y-228798826D01*
X207881250Y-228800000D01*
X207393750Y-228800000D01*
X207369858Y-228798826D01*
X207346197Y-228795316D01*
X207322993Y-228789504D01*
X207300471Y-228781446D01*
X207278847Y-228771218D01*
X207258330Y-228758921D01*
X207239117Y-228744671D01*
X207221393Y-228728607D01*
X207205329Y-228710883D01*
X207191079Y-228691670D01*
X207178782Y-228671153D01*
X207168554Y-228649529D01*
X207160496Y-228627007D01*
X207154684Y-228603803D01*
X207151174Y-228580142D01*
X207150000Y-228556250D01*
X207150000Y-227643750D01*
X207151174Y-227619858D01*
X207154684Y-227596197D01*
X207160496Y-227572993D01*
X207168554Y-227550471D01*
X207178782Y-227528847D01*
X207191079Y-227508330D01*
X207205329Y-227489117D01*
X207221393Y-227471393D01*
X207239117Y-227455329D01*
X207258330Y-227441079D01*
X207278847Y-227428782D01*
X207300471Y-227418554D01*
X207322993Y-227410496D01*
X207346197Y-227404684D01*
X207369858Y-227401174D01*
X207393750Y-227400000D01*
X207881250Y-227400000D01*
X207905142Y-227401174D01*
G37*
G36*
X206030142Y-227401174D02*
G01*
X206053803Y-227404684D01*
X206077007Y-227410496D01*
X206099529Y-227418554D01*
X206121153Y-227428782D01*
X206141670Y-227441079D01*
X206160883Y-227455329D01*
X206178607Y-227471393D01*
X206194671Y-227489117D01*
X206208921Y-227508330D01*
X206221218Y-227528847D01*
X206231446Y-227550471D01*
X206239504Y-227572993D01*
X206245316Y-227596197D01*
X206248826Y-227619858D01*
X206250000Y-227643750D01*
X206250000Y-228556250D01*
X206248826Y-228580142D01*
X206245316Y-228603803D01*
X206239504Y-228627007D01*
X206231446Y-228649529D01*
X206221218Y-228671153D01*
X206208921Y-228691670D01*
X206194671Y-228710883D01*
X206178607Y-228728607D01*
X206160883Y-228744671D01*
X206141670Y-228758921D01*
X206121153Y-228771218D01*
X206099529Y-228781446D01*
X206077007Y-228789504D01*
X206053803Y-228795316D01*
X206030142Y-228798826D01*
X206006250Y-228800000D01*
X205518750Y-228800000D01*
X205494858Y-228798826D01*
X205471197Y-228795316D01*
X205447993Y-228789504D01*
X205425471Y-228781446D01*
X205403847Y-228771218D01*
X205383330Y-228758921D01*
X205364117Y-228744671D01*
X205346393Y-228728607D01*
X205330329Y-228710883D01*
X205316079Y-228691670D01*
X205303782Y-228671153D01*
X205293554Y-228649529D01*
X205285496Y-228627007D01*
X205279684Y-228603803D01*
X205276174Y-228580142D01*
X205275000Y-228556250D01*
X205275000Y-227643750D01*
X205276174Y-227619858D01*
X205279684Y-227596197D01*
X205285496Y-227572993D01*
X205293554Y-227550471D01*
X205303782Y-227528847D01*
X205316079Y-227508330D01*
X205330329Y-227489117D01*
X205346393Y-227471393D01*
X205364117Y-227455329D01*
X205383330Y-227441079D01*
X205403847Y-227428782D01*
X205425471Y-227418554D01*
X205447993Y-227410496D01*
X205471197Y-227404684D01*
X205494858Y-227401174D01*
X205518750Y-227400000D01*
X206006250Y-227400000D01*
X206030142Y-227401174D01*
G37*
D11*
X175075000Y-75425000D03*
X175575000Y-75425000D03*
X176075000Y-75425000D03*
X176575000Y-75425000D03*
X177075000Y-75425000D03*
X177575000Y-75425000D03*
X178075000Y-75425000D03*
X178575000Y-75425000D03*
X179075000Y-75425000D03*
X179575000Y-75425000D03*
X180075000Y-75425000D03*
X180575000Y-75425000D03*
X180575000Y-77325000D03*
X180075000Y-77325000D03*
X179575000Y-77325000D03*
X179075000Y-77325000D03*
X178575000Y-77325000D03*
X178075000Y-77325000D03*
X177575000Y-77325000D03*
X177075000Y-77325000D03*
X176575000Y-77325000D03*
X176075000Y-77325000D03*
X175575000Y-77325000D03*
X175075000Y-77325000D03*
D12*
X177350000Y-70250000D03*
D13*
X178950000Y-70250000D03*
X178150000Y-70250000D03*
D12*
X179750000Y-70250000D03*
D13*
X178150000Y-68450000D03*
D12*
X177350000Y-68450000D03*
D13*
X178950000Y-68450000D03*
D12*
X179750000Y-68450000D03*
X215250000Y-57075000D03*
D13*
X213650000Y-57075000D03*
X214450000Y-57075000D03*
D12*
X212850000Y-57075000D03*
D13*
X214450000Y-58875000D03*
D12*
X215250000Y-58875000D03*
D13*
X213650000Y-58875000D03*
D12*
X212850000Y-58875000D03*
D14*
X182125000Y-59400000D03*
X182125000Y-54900000D03*
X174175000Y-54900000D03*
X174175000Y-59400000D03*
X209800000Y-69825000D03*
X209800000Y-65325000D03*
X217750000Y-65325000D03*
X217750000Y-69825000D03*
X216100000Y-178650000D03*
X216100000Y-174150000D03*
X224050000Y-174150000D03*
X224050000Y-178650000D03*
X173850000Y-178400000D03*
X173850000Y-173900000D03*
X181800000Y-173900000D03*
X181800000Y-178400000D03*
X202725000Y-178400000D03*
X202725000Y-173900000D03*
X194775000Y-173900000D03*
X194775000Y-178400000D03*
X194800000Y-216550000D03*
X194800000Y-212050000D03*
X202750000Y-212050000D03*
X202750000Y-216550000D03*
D15*
X194275000Y-228225000D03*
D16*
X194275000Y-229825000D03*
X194275000Y-229025000D03*
D15*
X194275000Y-230625000D03*
D16*
X196075000Y-229025000D03*
D15*
X196075000Y-228225000D03*
D16*
X196075000Y-229825000D03*
D15*
X196075000Y-230625000D03*
M02*
