M48
; DRILL file {KiCad 5.1.5} date Fri 20 Mar 2020 10:46:21 PM CDT
; FORMAT={-:-/ absolute / inch / decimal}
; #@! TF.CreationDate,2020-03-20T22:46:21-05:00
; #@! TF.GenerationSoftware,Kicad,Pcbnew,5.1.5
; #@! TF.FileFunction,Plated,1,2,PTH
FMAT,2
INCH
T1C0.0157
T2C0.0276
T3C0.0374
T4C0.0394
T5C0.0551
T6C0.0630
T7C0.1575
%
G90
G05
T1
X6.9518Y-3.0069
X6.9862Y-3.0886
X7.0089Y-2.9262
X7.0502Y-3.0069
X7.1264Y-2.8496
X7.2406Y-3.4461
X7.2441Y-3.3724
X7.2803Y-3.3724
X7.2972Y-8.4104
X7.3667Y-3.4424
X7.3751Y-3.2679
X7.3887Y-3.2395
X7.3906Y-3.5071
X7.4071Y-3.2059
X7.5047Y-3.6543
X7.5741Y-3.2586
X7.6055Y-3.2614
X7.6906Y-3.4224
X7.7445Y-4.2051
X7.7488Y-3.8291
X7.75Y-3.9705
X7.7691Y-4.6154
X7.7725Y-3.3909
X7.7749Y-3.4282
X7.8102Y-3.022
X7.8356Y-3.7925
X7.8642Y-3.4478
X7.9413Y-4.6551
X7.9524Y-4.5685
X7.9813Y-3.3356
X7.9867Y-6.9083
X7.9906Y-3.3909
X8.0098Y-3.4596
X8.0404Y-2.9488
X8.0935Y-2.9055
X8.0974Y-3.0335
X8.1014Y-7.811
X8.1614Y-4.6189
X8.1673Y-7.5079
X8.2016Y-4.6705
X8.235Y-3.4161
X8.2756Y-2.4732
X8.2917Y-4.0425
X8.3039Y-9.102
X8.313Y-8.9953
X8.3287Y-4.2028
X8.3697Y-4.202
X8.4102Y-4.2016
X8.4518Y-4.2008
X8.478Y-9.2118
X8.4811Y-8.8626
X8.5405Y-4.4626
X8.572Y-2.4744
X8.5736Y-3.6764
X8.5783Y-9.1878
X8.6413Y-3.2685
X8.6488Y-4.3571
X8.6504Y-8.9992
X8.7443Y-4.6664
X8.8236Y-4.4807
X8.9043Y-8.9906
T2
X6.9065Y-2.9222
X6.9065Y-3.0915
X7.0955Y-2.9222
X7.0955Y-3.0915
T3
X6.9104Y-8.2264
X6.9104Y-8.3248
X6.9104Y-8.4232
X6.9104Y-8.5217
X6.9104Y-8.6201
X6.9104Y-8.7185
X6.9104Y-8.8169
X6.9104Y-8.9154
X6.9104Y-9.0138
X6.9104Y-9.1122
X6.9104Y-9.2106
X6.9104Y-9.3091
T4
X8.9213Y-3.3075
X8.9213Y-3.4075
X7.522Y-9.2673
X7.622Y-9.2673
X7.722Y-9.2673
X7.822Y-9.2673
X7.6504Y-4.4957
X7.7504Y-4.4957
X7.8504Y-4.4957
X7.9504Y-4.4957
X7.3998Y-2.8642
X7.4998Y-2.8642
X7.5998Y-2.8642
X7.6998Y-2.8642
X7.7998Y-2.8642
X7.8998Y-2.8642
X7.1697Y-7.3858
X7.2697Y-7.3858
X7.3697Y-7.3858
X7.4697Y-7.3858
X7.5697Y-7.3858
X7.6697Y-7.3858
X7.7697Y-7.3858
X7.8697Y-7.3858
X7.9697Y-7.3858
X8.0697Y-7.3858
X8.5463Y-8.3455
X8.5463Y-8.4455
X8.5463Y-8.5455
T5
X7.5685Y-9.5945
X7.7654Y-9.5945
T6
X8.3484Y-8.3071
X8.3484Y-8.437
X8.3504Y-8.5669
T7
X8.7126Y-7.5807
X6.9217Y-7.5819
X7.5827Y-2.698
X8.9055Y-9.1783
X7.1165Y-9.5689
T0
M30
