G04 #@! TF.GenerationSoftware,KiCad,Pcbnew,5.1.5*
G04 #@! TF.CreationDate,2020-03-20T22:46:19-05:00*
G04 #@! TF.ProjectId,Reflow,5265666c-6f77-42e6-9b69-6361645f7063,rev?*
G04 #@! TF.SameCoordinates,Original*
G04 #@! TF.FileFunction,Legend,Bot*
G04 #@! TF.FilePolarity,Positive*
%FSLAX46Y46*%
G04 Gerber Fmt 4.6, Leading zero omitted, Abs format (unit mm)*
G04 Created by KiCad (PCBNEW 5.1.5) date 2020-03-20 22:46:19*
%MOMM*%
%LPD*%
G04 APERTURE LIST*
%ADD10C,0.250000*%
%ADD11C,0.120000*%
%ADD12C,0.150000*%
G04 APERTURE END LIST*
D10*
X182723690Y-182802261D02*
X181173690Y-182802261D01*
X181911785Y-182802261D02*
X181911785Y-183373690D01*
X182723690Y-183373690D02*
X181173690Y-183373690D01*
X182723690Y-183849880D02*
X181690357Y-183849880D01*
X181173690Y-183849880D02*
X181247500Y-183802261D01*
X181321309Y-183849880D01*
X181247500Y-183897500D01*
X181173690Y-183849880D01*
X181321309Y-183849880D01*
X181690357Y-184754642D02*
X182945119Y-184754642D01*
X183092738Y-184707023D01*
X183166547Y-184659404D01*
X183240357Y-184564166D01*
X183240357Y-184421309D01*
X183166547Y-184326071D01*
X182649880Y-184754642D02*
X182723690Y-184659404D01*
X182723690Y-184468928D01*
X182649880Y-184373690D01*
X182576071Y-184326071D01*
X182428452Y-184278452D01*
X181985595Y-184278452D01*
X181837976Y-184326071D01*
X181764166Y-184373690D01*
X181690357Y-184468928D01*
X181690357Y-184659404D01*
X181764166Y-184754642D01*
X182723690Y-185230833D02*
X181173690Y-185230833D01*
X182723690Y-185659404D02*
X181911785Y-185659404D01*
X181764166Y-185611785D01*
X181690357Y-185516547D01*
X181690357Y-185373690D01*
X181764166Y-185278452D01*
X181837976Y-185230833D01*
X185298690Y-180087976D02*
X183748690Y-180087976D01*
X184486785Y-180087976D02*
X184486785Y-180659404D01*
X185298690Y-180659404D02*
X183748690Y-180659404D01*
X185298690Y-181135595D02*
X184265357Y-181135595D01*
X183748690Y-181135595D02*
X183822500Y-181087976D01*
X183896309Y-181135595D01*
X183822500Y-181183214D01*
X183748690Y-181135595D01*
X183896309Y-181135595D01*
X184265357Y-182040357D02*
X185520119Y-182040357D01*
X185667738Y-181992738D01*
X185741547Y-181945119D01*
X185815357Y-181849880D01*
X185815357Y-181707023D01*
X185741547Y-181611785D01*
X185224880Y-182040357D02*
X185298690Y-181945119D01*
X185298690Y-181754642D01*
X185224880Y-181659404D01*
X185151071Y-181611785D01*
X185003452Y-181564166D01*
X184560595Y-181564166D01*
X184412976Y-181611785D01*
X184339166Y-181659404D01*
X184265357Y-181754642D01*
X184265357Y-181945119D01*
X184339166Y-182040357D01*
X185298690Y-182516547D02*
X183748690Y-182516547D01*
X185298690Y-182945119D02*
X184486785Y-182945119D01*
X184339166Y-182897500D01*
X184265357Y-182802261D01*
X184265357Y-182659404D01*
X184339166Y-182564166D01*
X184412976Y-182516547D01*
X185151071Y-183992738D02*
X185224880Y-183945119D01*
X185298690Y-183802261D01*
X185298690Y-183707023D01*
X185224880Y-183564166D01*
X185077261Y-183468928D01*
X184929642Y-183421309D01*
X184634404Y-183373690D01*
X184412976Y-183373690D01*
X184117738Y-183421309D01*
X183970119Y-183468928D01*
X183822500Y-183564166D01*
X183748690Y-183707023D01*
X183748690Y-183802261D01*
X183822500Y-183945119D01*
X183896309Y-183992738D01*
X184265357Y-184278452D02*
X184265357Y-184659404D01*
X183748690Y-184421309D02*
X185077261Y-184421309D01*
X185224880Y-184468928D01*
X185298690Y-184564166D01*
X185298690Y-184659404D01*
X185298690Y-184992738D02*
X184265357Y-184992738D01*
X184560595Y-184992738D02*
X184412976Y-185040357D01*
X184339166Y-185087976D01*
X184265357Y-185183214D01*
X184265357Y-185278452D01*
X185298690Y-185754642D02*
X185224880Y-185659404D01*
X185077261Y-185611785D01*
X183748690Y-185611785D01*
X187873690Y-183849880D02*
X187873690Y-183373690D01*
X186323690Y-183373690D01*
X187873690Y-184326071D02*
X187799880Y-184230833D01*
X187726071Y-184183214D01*
X187578452Y-184135595D01*
X187135595Y-184135595D01*
X186987976Y-184183214D01*
X186914166Y-184230833D01*
X186840357Y-184326071D01*
X186840357Y-184468928D01*
X186914166Y-184564166D01*
X186987976Y-184611785D01*
X187135595Y-184659404D01*
X187578452Y-184659404D01*
X187726071Y-184611785D01*
X187799880Y-184564166D01*
X187873690Y-184468928D01*
X187873690Y-184326071D01*
X186840357Y-184992738D02*
X187873690Y-185183214D01*
X187135595Y-185373690D01*
X187873690Y-185564166D01*
X186840357Y-185754642D01*
X190448690Y-181135595D02*
X190448690Y-180659404D01*
X188898690Y-180659404D01*
X190448690Y-181611785D02*
X190374880Y-181516547D01*
X190301071Y-181468928D01*
X190153452Y-181421309D01*
X189710595Y-181421309D01*
X189562976Y-181468928D01*
X189489166Y-181516547D01*
X189415357Y-181611785D01*
X189415357Y-181754642D01*
X189489166Y-181849880D01*
X189562976Y-181897500D01*
X189710595Y-181945119D01*
X190153452Y-181945119D01*
X190301071Y-181897500D01*
X190374880Y-181849880D01*
X190448690Y-181754642D01*
X190448690Y-181611785D01*
X189415357Y-182278452D02*
X190448690Y-182468928D01*
X189710595Y-182659404D01*
X190448690Y-182849880D01*
X189415357Y-183040357D01*
X190301071Y-183992738D02*
X190374880Y-183945119D01*
X190448690Y-183802261D01*
X190448690Y-183707023D01*
X190374880Y-183564166D01*
X190227261Y-183468928D01*
X190079642Y-183421309D01*
X189784404Y-183373690D01*
X189562976Y-183373690D01*
X189267738Y-183421309D01*
X189120119Y-183468928D01*
X188972500Y-183564166D01*
X188898690Y-183707023D01*
X188898690Y-183802261D01*
X188972500Y-183945119D01*
X189046309Y-183992738D01*
X189415357Y-184278452D02*
X189415357Y-184659404D01*
X188898690Y-184421309D02*
X190227261Y-184421309D01*
X190374880Y-184468928D01*
X190448690Y-184564166D01*
X190448690Y-184659404D01*
X190448690Y-184992738D02*
X189415357Y-184992738D01*
X189710595Y-184992738D02*
X189562976Y-185040357D01*
X189489166Y-185087976D01*
X189415357Y-185183214D01*
X189415357Y-185278452D01*
X190448690Y-185754642D02*
X190374880Y-185659404D01*
X190227261Y-185611785D01*
X188898690Y-185611785D01*
X193023690Y-183897500D02*
X192285595Y-183564166D01*
X193023690Y-183326071D02*
X191473690Y-183326071D01*
X191473690Y-183707023D01*
X191547500Y-183802261D01*
X191621309Y-183849880D01*
X191768928Y-183897500D01*
X191990357Y-183897500D01*
X192137976Y-183849880D01*
X192211785Y-183802261D01*
X192285595Y-183707023D01*
X192285595Y-183326071D01*
X191473690Y-184516547D02*
X191473690Y-184707023D01*
X191547500Y-184802261D01*
X191695119Y-184897500D01*
X191990357Y-184945119D01*
X192507023Y-184945119D01*
X192802261Y-184897500D01*
X192949880Y-184802261D01*
X193023690Y-184707023D01*
X193023690Y-184516547D01*
X192949880Y-184421309D01*
X192802261Y-184326071D01*
X192507023Y-184278452D01*
X191990357Y-184278452D01*
X191695119Y-184326071D01*
X191547500Y-184421309D01*
X191473690Y-184516547D01*
X191473690Y-185230833D02*
X191473690Y-185802261D01*
X193023690Y-185516547D02*
X191473690Y-185516547D01*
X195598690Y-181516547D02*
X194860595Y-181183214D01*
X195598690Y-180945119D02*
X194048690Y-180945119D01*
X194048690Y-181326071D01*
X194122500Y-181421309D01*
X194196309Y-181468928D01*
X194343928Y-181516547D01*
X194565357Y-181516547D01*
X194712976Y-181468928D01*
X194786785Y-181421309D01*
X194860595Y-181326071D01*
X194860595Y-180945119D01*
X195598690Y-182087976D02*
X195524880Y-181992738D01*
X195451071Y-181945119D01*
X195303452Y-181897500D01*
X194860595Y-181897500D01*
X194712976Y-181945119D01*
X194639166Y-181992738D01*
X194565357Y-182087976D01*
X194565357Y-182230833D01*
X194639166Y-182326071D01*
X194712976Y-182373690D01*
X194860595Y-182421309D01*
X195303452Y-182421309D01*
X195451071Y-182373690D01*
X195524880Y-182326071D01*
X195598690Y-182230833D01*
X195598690Y-182087976D01*
X194565357Y-182707023D02*
X194565357Y-183087976D01*
X194048690Y-182849880D02*
X195377261Y-182849880D01*
X195524880Y-182897500D01*
X195598690Y-182992738D01*
X195598690Y-183087976D01*
X195451071Y-183992738D02*
X195524880Y-183945119D01*
X195598690Y-183802261D01*
X195598690Y-183707023D01*
X195524880Y-183564166D01*
X195377261Y-183468928D01*
X195229642Y-183421309D01*
X194934404Y-183373690D01*
X194712976Y-183373690D01*
X194417738Y-183421309D01*
X194270119Y-183468928D01*
X194122500Y-183564166D01*
X194048690Y-183707023D01*
X194048690Y-183802261D01*
X194122500Y-183945119D01*
X194196309Y-183992738D01*
X194565357Y-184278452D02*
X194565357Y-184659404D01*
X194048690Y-184421309D02*
X195377261Y-184421309D01*
X195524880Y-184468928D01*
X195598690Y-184564166D01*
X195598690Y-184659404D01*
X195598690Y-184992738D02*
X194565357Y-184992738D01*
X194860595Y-184992738D02*
X194712976Y-185040357D01*
X194639166Y-185087976D01*
X194565357Y-185183214D01*
X194565357Y-185278452D01*
X195598690Y-185754642D02*
X195524880Y-185659404D01*
X195377261Y-185611785D01*
X194048690Y-185611785D01*
X197361785Y-183802261D02*
X197361785Y-183468928D01*
X198173690Y-183468928D02*
X196623690Y-183468928D01*
X196623690Y-183945119D01*
X198173690Y-184754642D02*
X197361785Y-184754642D01*
X197214166Y-184707023D01*
X197140357Y-184611785D01*
X197140357Y-184421309D01*
X197214166Y-184326071D01*
X198099880Y-184754642D02*
X198173690Y-184659404D01*
X198173690Y-184421309D01*
X198099880Y-184326071D01*
X197952261Y-184278452D01*
X197804642Y-184278452D01*
X197657023Y-184326071D01*
X197583214Y-184421309D01*
X197583214Y-184659404D01*
X197509404Y-184754642D01*
X197140357Y-185230833D02*
X198173690Y-185230833D01*
X197287976Y-185230833D02*
X197214166Y-185278452D01*
X197140357Y-185373690D01*
X197140357Y-185516547D01*
X197214166Y-185611785D01*
X197361785Y-185659404D01*
X198173690Y-185659404D01*
X199936785Y-181087976D02*
X199936785Y-180754642D01*
X200748690Y-180754642D02*
X199198690Y-180754642D01*
X199198690Y-181230833D01*
X200748690Y-182040357D02*
X199936785Y-182040357D01*
X199789166Y-181992738D01*
X199715357Y-181897500D01*
X199715357Y-181707023D01*
X199789166Y-181611785D01*
X200674880Y-182040357D02*
X200748690Y-181945119D01*
X200748690Y-181707023D01*
X200674880Y-181611785D01*
X200527261Y-181564166D01*
X200379642Y-181564166D01*
X200232023Y-181611785D01*
X200158214Y-181707023D01*
X200158214Y-181945119D01*
X200084404Y-182040357D01*
X199715357Y-182516547D02*
X200748690Y-182516547D01*
X199862976Y-182516547D02*
X199789166Y-182564166D01*
X199715357Y-182659404D01*
X199715357Y-182802261D01*
X199789166Y-182897500D01*
X199936785Y-182945119D01*
X200748690Y-182945119D01*
X200601071Y-183992738D02*
X200674880Y-183945119D01*
X200748690Y-183802261D01*
X200748690Y-183707023D01*
X200674880Y-183564166D01*
X200527261Y-183468928D01*
X200379642Y-183421309D01*
X200084404Y-183373690D01*
X199862976Y-183373690D01*
X199567738Y-183421309D01*
X199420119Y-183468928D01*
X199272500Y-183564166D01*
X199198690Y-183707023D01*
X199198690Y-183802261D01*
X199272500Y-183945119D01*
X199346309Y-183992738D01*
X199715357Y-184278452D02*
X199715357Y-184659404D01*
X199198690Y-184421309D02*
X200527261Y-184421309D01*
X200674880Y-184468928D01*
X200748690Y-184564166D01*
X200748690Y-184659404D01*
X200748690Y-184992738D02*
X199715357Y-184992738D01*
X200010595Y-184992738D02*
X199862976Y-185040357D01*
X199789166Y-185087976D01*
X199715357Y-185183214D01*
X199715357Y-185278452D01*
X200748690Y-185754642D02*
X200674880Y-185659404D01*
X200527261Y-185611785D01*
X199198690Y-185611785D01*
X203323690Y-182659404D02*
X203323690Y-182183214D01*
X201773690Y-182183214D01*
X203323690Y-183421309D02*
X202511785Y-183421309D01*
X202364166Y-183373690D01*
X202290357Y-183278452D01*
X202290357Y-183087976D01*
X202364166Y-182992738D01*
X203249880Y-183421309D02*
X203323690Y-183326071D01*
X203323690Y-183087976D01*
X203249880Y-182992738D01*
X203102261Y-182945119D01*
X202954642Y-182945119D01*
X202807023Y-182992738D01*
X202733214Y-183087976D01*
X202733214Y-183326071D01*
X202659404Y-183421309D01*
X203323690Y-183897500D02*
X202290357Y-183897500D01*
X202437976Y-183897500D02*
X202364166Y-183945119D01*
X202290357Y-184040357D01*
X202290357Y-184183214D01*
X202364166Y-184278452D01*
X202511785Y-184326071D01*
X203323690Y-184326071D01*
X202511785Y-184326071D02*
X202364166Y-184373690D01*
X202290357Y-184468928D01*
X202290357Y-184611785D01*
X202364166Y-184707023D01*
X202511785Y-184754642D01*
X203323690Y-184754642D01*
X202290357Y-185230833D02*
X203840357Y-185230833D01*
X202364166Y-185230833D02*
X202290357Y-185326071D01*
X202290357Y-185516547D01*
X202364166Y-185611785D01*
X202437976Y-185659404D01*
X202585595Y-185707023D01*
X203028452Y-185707023D01*
X203176071Y-185659404D01*
X203249880Y-185611785D01*
X203323690Y-185516547D01*
X203323690Y-185326071D01*
X203249880Y-185230833D01*
X205898690Y-179945119D02*
X205898690Y-179468928D01*
X204348690Y-179468928D01*
X205898690Y-180707023D02*
X205086785Y-180707023D01*
X204939166Y-180659404D01*
X204865357Y-180564166D01*
X204865357Y-180373690D01*
X204939166Y-180278452D01*
X205824880Y-180707023D02*
X205898690Y-180611785D01*
X205898690Y-180373690D01*
X205824880Y-180278452D01*
X205677261Y-180230833D01*
X205529642Y-180230833D01*
X205382023Y-180278452D01*
X205308214Y-180373690D01*
X205308214Y-180611785D01*
X205234404Y-180707023D01*
X205898690Y-181183214D02*
X204865357Y-181183214D01*
X205012976Y-181183214D02*
X204939166Y-181230833D01*
X204865357Y-181326071D01*
X204865357Y-181468928D01*
X204939166Y-181564166D01*
X205086785Y-181611785D01*
X205898690Y-181611785D01*
X205086785Y-181611785D02*
X204939166Y-181659404D01*
X204865357Y-181754642D01*
X204865357Y-181897500D01*
X204939166Y-181992738D01*
X205086785Y-182040357D01*
X205898690Y-182040357D01*
X204865357Y-182516547D02*
X206415357Y-182516547D01*
X204939166Y-182516547D02*
X204865357Y-182611785D01*
X204865357Y-182802261D01*
X204939166Y-182897500D01*
X205012976Y-182945119D01*
X205160595Y-182992738D01*
X205603452Y-182992738D01*
X205751071Y-182945119D01*
X205824880Y-182897500D01*
X205898690Y-182802261D01*
X205898690Y-182611785D01*
X205824880Y-182516547D01*
X205751071Y-183992738D02*
X205824880Y-183945119D01*
X205898690Y-183802261D01*
X205898690Y-183707023D01*
X205824880Y-183564166D01*
X205677261Y-183468928D01*
X205529642Y-183421309D01*
X205234404Y-183373690D01*
X205012976Y-183373690D01*
X204717738Y-183421309D01*
X204570119Y-183468928D01*
X204422500Y-183564166D01*
X204348690Y-183707023D01*
X204348690Y-183802261D01*
X204422500Y-183945119D01*
X204496309Y-183992738D01*
X204865357Y-184278452D02*
X204865357Y-184659404D01*
X204348690Y-184421309D02*
X205677261Y-184421309D01*
X205824880Y-184468928D01*
X205898690Y-184564166D01*
X205898690Y-184659404D01*
X205898690Y-184992738D02*
X204865357Y-184992738D01*
X205160595Y-184992738D02*
X205012976Y-185040357D01*
X204939166Y-185087976D01*
X204865357Y-185183214D01*
X204865357Y-185278452D01*
X205898690Y-185754642D02*
X205824880Y-185659404D01*
X205677261Y-185611785D01*
X204348690Y-185611785D01*
D11*
X207003922Y-95410000D02*
X207521078Y-95410000D01*
X207003922Y-93990000D02*
X207521078Y-93990000D01*
X206928922Y-92235000D02*
X207446078Y-92235000D01*
X206928922Y-90815000D02*
X207446078Y-90815000D01*
X206828922Y-71765000D02*
X207346078Y-71765000D01*
X206828922Y-73185000D02*
X207346078Y-73185000D01*
X206828922Y-74965000D02*
X207346078Y-74965000D01*
X206828922Y-76385000D02*
X207346078Y-76385000D01*
X198703922Y-66965000D02*
X199221078Y-66965000D01*
X198703922Y-68385000D02*
X199221078Y-68385000D01*
X190971078Y-97635000D02*
X190453922Y-97635000D01*
X190971078Y-96215000D02*
X190453922Y-96215000D01*
X216278922Y-86010000D02*
X216796078Y-86010000D01*
X216278922Y-84590000D02*
X216796078Y-84590000D01*
X216353922Y-89310000D02*
X216871078Y-89310000D01*
X216353922Y-87890000D02*
X216871078Y-87890000D01*
X216303922Y-79385000D02*
X216821078Y-79385000D01*
X216303922Y-77965000D02*
X216821078Y-77965000D01*
X216278922Y-81140000D02*
X216796078Y-81140000D01*
X216278922Y-82560000D02*
X216796078Y-82560000D01*
X179866422Y-124485000D02*
X180383578Y-124485000D01*
X179866422Y-123065000D02*
X180383578Y-123065000D01*
X180028922Y-107115000D02*
X180546078Y-107115000D01*
X180028922Y-108535000D02*
X180546078Y-108535000D01*
X182475000Y-85055000D02*
X181475000Y-85055000D01*
X182475000Y-81695000D02*
X181475000Y-81695000D01*
X207112221Y-98385000D02*
X207437779Y-98385000D01*
X207112221Y-97365000D02*
X207437779Y-97365000D01*
X206853922Y-84540000D02*
X207371078Y-84540000D01*
X206853922Y-85960000D02*
X207371078Y-85960000D01*
X206903922Y-89060000D02*
X207421078Y-89060000D01*
X206903922Y-87640000D02*
X207421078Y-87640000D01*
X206878922Y-79635000D02*
X207396078Y-79635000D01*
X206878922Y-78215000D02*
X207396078Y-78215000D01*
X206853922Y-81390000D02*
X207371078Y-81390000D01*
X206853922Y-82810000D02*
X207371078Y-82810000D01*
X213095000Y-104775000D02*
X213095000Y-103775000D01*
X216455000Y-104775000D02*
X216455000Y-103775000D01*
X217950000Y-227720000D02*
X217950000Y-226820000D01*
X217950000Y-226820000D02*
X217050000Y-226820000D01*
X212730000Y-231140000D02*
X212730000Y-232040000D01*
X212730000Y-232040000D02*
X213630000Y-232040000D01*
X212730000Y-227720000D02*
X212730000Y-226820000D01*
X212730000Y-226820000D02*
X213630000Y-226820000D01*
X217950000Y-231140000D02*
X217950000Y-232040000D01*
X191265000Y-89760000D02*
X190315000Y-89760000D01*
X190315000Y-89760000D02*
X190315000Y-88810000D01*
X199585000Y-89760000D02*
X200535000Y-89760000D01*
X200535000Y-89760000D02*
X200535000Y-88810000D01*
X191265000Y-79540000D02*
X190315000Y-79540000D01*
X190315000Y-79540000D02*
X190315000Y-80490000D01*
X199585000Y-79540000D02*
X200535000Y-79540000D01*
X200535000Y-79540000D02*
X200535000Y-80490000D01*
X200535000Y-80490000D02*
X201875000Y-80490000D01*
X176765000Y-119010000D02*
X176765000Y-117750000D01*
X176765000Y-112190000D02*
X176765000Y-113450000D01*
X180525000Y-119010000D02*
X176765000Y-119010000D01*
X182775000Y-112190000D02*
X176765000Y-112190000D01*
X210025000Y-88125000D02*
X210025000Y-84975000D01*
X210025000Y-84975000D02*
X214025000Y-84975000D01*
X211300000Y-81125000D02*
X211300000Y-79775000D01*
X213050000Y-81125000D02*
X213050000Y-79775000D01*
D12*
X207429166Y-96707142D02*
X207476785Y-96754761D01*
X207619642Y-96802380D01*
X207714880Y-96802380D01*
X207857738Y-96754761D01*
X207952976Y-96659523D01*
X208000595Y-96564285D01*
X208048214Y-96373809D01*
X208048214Y-96230952D01*
X208000595Y-96040476D01*
X207952976Y-95945238D01*
X207857738Y-95850000D01*
X207714880Y-95802380D01*
X207619642Y-95802380D01*
X207476785Y-95850000D01*
X207429166Y-95897619D01*
X206476785Y-96802380D02*
X207048214Y-96802380D01*
X206762500Y-96802380D02*
X206762500Y-95802380D01*
X206857738Y-95945238D01*
X206952976Y-96040476D01*
X207048214Y-96088095D01*
X207354166Y-93532142D02*
X207401785Y-93579761D01*
X207544642Y-93627380D01*
X207639880Y-93627380D01*
X207782738Y-93579761D01*
X207877976Y-93484523D01*
X207925595Y-93389285D01*
X207973214Y-93198809D01*
X207973214Y-93055952D01*
X207925595Y-92865476D01*
X207877976Y-92770238D01*
X207782738Y-92675000D01*
X207639880Y-92627380D01*
X207544642Y-92627380D01*
X207401785Y-92675000D01*
X207354166Y-92722619D01*
X206973214Y-92722619D02*
X206925595Y-92675000D01*
X206830357Y-92627380D01*
X206592261Y-92627380D01*
X206497023Y-92675000D01*
X206449404Y-92722619D01*
X206401785Y-92817857D01*
X206401785Y-92913095D01*
X206449404Y-93055952D01*
X207020833Y-93627380D01*
X206401785Y-93627380D01*
X207254166Y-74482142D02*
X207301785Y-74529761D01*
X207444642Y-74577380D01*
X207539880Y-74577380D01*
X207682738Y-74529761D01*
X207777976Y-74434523D01*
X207825595Y-74339285D01*
X207873214Y-74148809D01*
X207873214Y-74005952D01*
X207825595Y-73815476D01*
X207777976Y-73720238D01*
X207682738Y-73625000D01*
X207539880Y-73577380D01*
X207444642Y-73577380D01*
X207301785Y-73625000D01*
X207254166Y-73672619D01*
X206920833Y-73577380D02*
X206301785Y-73577380D01*
X206635119Y-73958333D01*
X206492261Y-73958333D01*
X206397023Y-74005952D01*
X206349404Y-74053571D01*
X206301785Y-74148809D01*
X206301785Y-74386904D01*
X206349404Y-74482142D01*
X206397023Y-74529761D01*
X206492261Y-74577380D01*
X206777976Y-74577380D01*
X206873214Y-74529761D01*
X206920833Y-74482142D01*
X207254166Y-77682142D02*
X207301785Y-77729761D01*
X207444642Y-77777380D01*
X207539880Y-77777380D01*
X207682738Y-77729761D01*
X207777976Y-77634523D01*
X207825595Y-77539285D01*
X207873214Y-77348809D01*
X207873214Y-77205952D01*
X207825595Y-77015476D01*
X207777976Y-76920238D01*
X207682738Y-76825000D01*
X207539880Y-76777380D01*
X207444642Y-76777380D01*
X207301785Y-76825000D01*
X207254166Y-76872619D01*
X206397023Y-77110714D02*
X206397023Y-77777380D01*
X206635119Y-76729761D02*
X206873214Y-77444047D01*
X206254166Y-77444047D01*
X199129166Y-69682142D02*
X199176785Y-69729761D01*
X199319642Y-69777380D01*
X199414880Y-69777380D01*
X199557738Y-69729761D01*
X199652976Y-69634523D01*
X199700595Y-69539285D01*
X199748214Y-69348809D01*
X199748214Y-69205952D01*
X199700595Y-69015476D01*
X199652976Y-68920238D01*
X199557738Y-68825000D01*
X199414880Y-68777380D01*
X199319642Y-68777380D01*
X199176785Y-68825000D01*
X199129166Y-68872619D01*
X198224404Y-68777380D02*
X198700595Y-68777380D01*
X198748214Y-69253571D01*
X198700595Y-69205952D01*
X198605357Y-69158333D01*
X198367261Y-69158333D01*
X198272023Y-69205952D01*
X198224404Y-69253571D01*
X198176785Y-69348809D01*
X198176785Y-69586904D01*
X198224404Y-69682142D01*
X198272023Y-69729761D01*
X198367261Y-69777380D01*
X198605357Y-69777380D01*
X198700595Y-69729761D01*
X198748214Y-69682142D01*
X190879166Y-95632142D02*
X190926785Y-95679761D01*
X191069642Y-95727380D01*
X191164880Y-95727380D01*
X191307738Y-95679761D01*
X191402976Y-95584523D01*
X191450595Y-95489285D01*
X191498214Y-95298809D01*
X191498214Y-95155952D01*
X191450595Y-94965476D01*
X191402976Y-94870238D01*
X191307738Y-94775000D01*
X191164880Y-94727380D01*
X191069642Y-94727380D01*
X190926785Y-94775000D01*
X190879166Y-94822619D01*
X190022023Y-94727380D02*
X190212500Y-94727380D01*
X190307738Y-94775000D01*
X190355357Y-94822619D01*
X190450595Y-94965476D01*
X190498214Y-95155952D01*
X190498214Y-95536904D01*
X190450595Y-95632142D01*
X190402976Y-95679761D01*
X190307738Y-95727380D01*
X190117261Y-95727380D01*
X190022023Y-95679761D01*
X189974404Y-95632142D01*
X189926785Y-95536904D01*
X189926785Y-95298809D01*
X189974404Y-95203571D01*
X190022023Y-95155952D01*
X190117261Y-95108333D01*
X190307738Y-95108333D01*
X190402976Y-95155952D01*
X190450595Y-95203571D01*
X190498214Y-95298809D01*
X216704166Y-87307142D02*
X216751785Y-87354761D01*
X216894642Y-87402380D01*
X216989880Y-87402380D01*
X217132738Y-87354761D01*
X217227976Y-87259523D01*
X217275595Y-87164285D01*
X217323214Y-86973809D01*
X217323214Y-86830952D01*
X217275595Y-86640476D01*
X217227976Y-86545238D01*
X217132738Y-86450000D01*
X216989880Y-86402380D01*
X216894642Y-86402380D01*
X216751785Y-86450000D01*
X216704166Y-86497619D01*
X216370833Y-86402380D02*
X215704166Y-86402380D01*
X216132738Y-87402380D01*
X216779166Y-90607142D02*
X216826785Y-90654761D01*
X216969642Y-90702380D01*
X217064880Y-90702380D01*
X217207738Y-90654761D01*
X217302976Y-90559523D01*
X217350595Y-90464285D01*
X217398214Y-90273809D01*
X217398214Y-90130952D01*
X217350595Y-89940476D01*
X217302976Y-89845238D01*
X217207738Y-89750000D01*
X217064880Y-89702380D01*
X216969642Y-89702380D01*
X216826785Y-89750000D01*
X216779166Y-89797619D01*
X216207738Y-90130952D02*
X216302976Y-90083333D01*
X216350595Y-90035714D01*
X216398214Y-89940476D01*
X216398214Y-89892857D01*
X216350595Y-89797619D01*
X216302976Y-89750000D01*
X216207738Y-89702380D01*
X216017261Y-89702380D01*
X215922023Y-89750000D01*
X215874404Y-89797619D01*
X215826785Y-89892857D01*
X215826785Y-89940476D01*
X215874404Y-90035714D01*
X215922023Y-90083333D01*
X216017261Y-90130952D01*
X216207738Y-90130952D01*
X216302976Y-90178571D01*
X216350595Y-90226190D01*
X216398214Y-90321428D01*
X216398214Y-90511904D01*
X216350595Y-90607142D01*
X216302976Y-90654761D01*
X216207738Y-90702380D01*
X216017261Y-90702380D01*
X215922023Y-90654761D01*
X215874404Y-90607142D01*
X215826785Y-90511904D01*
X215826785Y-90321428D01*
X215874404Y-90226190D01*
X215922023Y-90178571D01*
X216017261Y-90130952D01*
X216729166Y-80682142D02*
X216776785Y-80729761D01*
X216919642Y-80777380D01*
X217014880Y-80777380D01*
X217157738Y-80729761D01*
X217252976Y-80634523D01*
X217300595Y-80539285D01*
X217348214Y-80348809D01*
X217348214Y-80205952D01*
X217300595Y-80015476D01*
X217252976Y-79920238D01*
X217157738Y-79825000D01*
X217014880Y-79777380D01*
X216919642Y-79777380D01*
X216776785Y-79825000D01*
X216729166Y-79872619D01*
X216252976Y-80777380D02*
X216062500Y-80777380D01*
X215967261Y-80729761D01*
X215919642Y-80682142D01*
X215824404Y-80539285D01*
X215776785Y-80348809D01*
X215776785Y-79967857D01*
X215824404Y-79872619D01*
X215872023Y-79825000D01*
X215967261Y-79777380D01*
X216157738Y-79777380D01*
X216252976Y-79825000D01*
X216300595Y-79872619D01*
X216348214Y-79967857D01*
X216348214Y-80205952D01*
X216300595Y-80301190D01*
X216252976Y-80348809D01*
X216157738Y-80396428D01*
X215967261Y-80396428D01*
X215872023Y-80348809D01*
X215824404Y-80301190D01*
X215776785Y-80205952D01*
X217180357Y-83857142D02*
X217227976Y-83904761D01*
X217370833Y-83952380D01*
X217466071Y-83952380D01*
X217608928Y-83904761D01*
X217704166Y-83809523D01*
X217751785Y-83714285D01*
X217799404Y-83523809D01*
X217799404Y-83380952D01*
X217751785Y-83190476D01*
X217704166Y-83095238D01*
X217608928Y-83000000D01*
X217466071Y-82952380D01*
X217370833Y-82952380D01*
X217227976Y-83000000D01*
X217180357Y-83047619D01*
X216227976Y-83952380D02*
X216799404Y-83952380D01*
X216513690Y-83952380D02*
X216513690Y-82952380D01*
X216608928Y-83095238D01*
X216704166Y-83190476D01*
X216799404Y-83238095D01*
X215608928Y-82952380D02*
X215513690Y-82952380D01*
X215418452Y-83000000D01*
X215370833Y-83047619D01*
X215323214Y-83142857D01*
X215275595Y-83333333D01*
X215275595Y-83571428D01*
X215323214Y-83761904D01*
X215370833Y-83857142D01*
X215418452Y-83904761D01*
X215513690Y-83952380D01*
X215608928Y-83952380D01*
X215704166Y-83904761D01*
X215751785Y-83857142D01*
X215799404Y-83761904D01*
X215847023Y-83571428D01*
X215847023Y-83333333D01*
X215799404Y-83142857D01*
X215751785Y-83047619D01*
X215704166Y-83000000D01*
X215608928Y-82952380D01*
X180767857Y-125782142D02*
X180815476Y-125829761D01*
X180958333Y-125877380D01*
X181053571Y-125877380D01*
X181196428Y-125829761D01*
X181291666Y-125734523D01*
X181339285Y-125639285D01*
X181386904Y-125448809D01*
X181386904Y-125305952D01*
X181339285Y-125115476D01*
X181291666Y-125020238D01*
X181196428Y-124925000D01*
X181053571Y-124877380D01*
X180958333Y-124877380D01*
X180815476Y-124925000D01*
X180767857Y-124972619D01*
X179815476Y-125877380D02*
X180386904Y-125877380D01*
X180101190Y-125877380D02*
X180101190Y-124877380D01*
X180196428Y-125020238D01*
X180291666Y-125115476D01*
X180386904Y-125163095D01*
X178863095Y-125877380D02*
X179434523Y-125877380D01*
X179148809Y-125877380D02*
X179148809Y-124877380D01*
X179244047Y-125020238D01*
X179339285Y-125115476D01*
X179434523Y-125163095D01*
X180930357Y-109832142D02*
X180977976Y-109879761D01*
X181120833Y-109927380D01*
X181216071Y-109927380D01*
X181358928Y-109879761D01*
X181454166Y-109784523D01*
X181501785Y-109689285D01*
X181549404Y-109498809D01*
X181549404Y-109355952D01*
X181501785Y-109165476D01*
X181454166Y-109070238D01*
X181358928Y-108975000D01*
X181216071Y-108927380D01*
X181120833Y-108927380D01*
X180977976Y-108975000D01*
X180930357Y-109022619D01*
X179977976Y-109927380D02*
X180549404Y-109927380D01*
X180263690Y-109927380D02*
X180263690Y-108927380D01*
X180358928Y-109070238D01*
X180454166Y-109165476D01*
X180549404Y-109213095D01*
X179597023Y-109022619D02*
X179549404Y-108975000D01*
X179454166Y-108927380D01*
X179216071Y-108927380D01*
X179120833Y-108975000D01*
X179073214Y-109022619D01*
X179025595Y-109117857D01*
X179025595Y-109213095D01*
X179073214Y-109355952D01*
X179644642Y-109927380D01*
X179025595Y-109927380D01*
X182665476Y-86532142D02*
X182713095Y-86579761D01*
X182855952Y-86627380D01*
X182951190Y-86627380D01*
X183094047Y-86579761D01*
X183189285Y-86484523D01*
X183236904Y-86389285D01*
X183284523Y-86198809D01*
X183284523Y-86055952D01*
X183236904Y-85865476D01*
X183189285Y-85770238D01*
X183094047Y-85675000D01*
X182951190Y-85627380D01*
X182855952Y-85627380D01*
X182713095Y-85675000D01*
X182665476Y-85722619D01*
X182236904Y-86627380D02*
X182236904Y-85627380D01*
X181665476Y-86627380D01*
X181665476Y-85627380D01*
X180665476Y-86627380D02*
X181236904Y-86627380D01*
X180951190Y-86627380D02*
X180951190Y-85627380D01*
X181046428Y-85770238D01*
X181141666Y-85865476D01*
X181236904Y-85913095D01*
X207441666Y-99757380D02*
X207917857Y-99757380D01*
X207917857Y-98757380D01*
X206584523Y-99757380D02*
X207155952Y-99757380D01*
X206870238Y-99757380D02*
X206870238Y-98757380D01*
X206965476Y-98900238D01*
X207060714Y-98995476D01*
X207155952Y-99043095D01*
X207279166Y-87352380D02*
X207612500Y-86876190D01*
X207850595Y-87352380D02*
X207850595Y-86352380D01*
X207469642Y-86352380D01*
X207374404Y-86400000D01*
X207326785Y-86447619D01*
X207279166Y-86542857D01*
X207279166Y-86685714D01*
X207326785Y-86780952D01*
X207374404Y-86828571D01*
X207469642Y-86876190D01*
X207850595Y-86876190D01*
X206326785Y-87352380D02*
X206898214Y-87352380D01*
X206612500Y-87352380D02*
X206612500Y-86352380D01*
X206707738Y-86495238D01*
X206802976Y-86590476D01*
X206898214Y-86638095D01*
X207329166Y-90452380D02*
X207662500Y-89976190D01*
X207900595Y-90452380D02*
X207900595Y-89452380D01*
X207519642Y-89452380D01*
X207424404Y-89500000D01*
X207376785Y-89547619D01*
X207329166Y-89642857D01*
X207329166Y-89785714D01*
X207376785Y-89880952D01*
X207424404Y-89928571D01*
X207519642Y-89976190D01*
X207900595Y-89976190D01*
X206948214Y-89547619D02*
X206900595Y-89500000D01*
X206805357Y-89452380D01*
X206567261Y-89452380D01*
X206472023Y-89500000D01*
X206424404Y-89547619D01*
X206376785Y-89642857D01*
X206376785Y-89738095D01*
X206424404Y-89880952D01*
X206995833Y-90452380D01*
X206376785Y-90452380D01*
X207304166Y-81027380D02*
X207637500Y-80551190D01*
X207875595Y-81027380D02*
X207875595Y-80027380D01*
X207494642Y-80027380D01*
X207399404Y-80075000D01*
X207351785Y-80122619D01*
X207304166Y-80217857D01*
X207304166Y-80360714D01*
X207351785Y-80455952D01*
X207399404Y-80503571D01*
X207494642Y-80551190D01*
X207875595Y-80551190D01*
X206970833Y-80027380D02*
X206351785Y-80027380D01*
X206685119Y-80408333D01*
X206542261Y-80408333D01*
X206447023Y-80455952D01*
X206399404Y-80503571D01*
X206351785Y-80598809D01*
X206351785Y-80836904D01*
X206399404Y-80932142D01*
X206447023Y-80979761D01*
X206542261Y-81027380D01*
X206827976Y-81027380D01*
X206923214Y-80979761D01*
X206970833Y-80932142D01*
X207279166Y-84202380D02*
X207612500Y-83726190D01*
X207850595Y-84202380D02*
X207850595Y-83202380D01*
X207469642Y-83202380D01*
X207374404Y-83250000D01*
X207326785Y-83297619D01*
X207279166Y-83392857D01*
X207279166Y-83535714D01*
X207326785Y-83630952D01*
X207374404Y-83678571D01*
X207469642Y-83726190D01*
X207850595Y-83726190D01*
X206422023Y-83535714D02*
X206422023Y-84202380D01*
X206660119Y-83154761D02*
X206898214Y-83869047D01*
X206279166Y-83869047D01*
X212427380Y-103584523D02*
X211951190Y-103251190D01*
X212427380Y-103013095D02*
X211427380Y-103013095D01*
X211427380Y-103394047D01*
X211475000Y-103489285D01*
X211522619Y-103536904D01*
X211617857Y-103584523D01*
X211760714Y-103584523D01*
X211855952Y-103536904D01*
X211903571Y-103489285D01*
X211951190Y-103394047D01*
X211951190Y-103013095D01*
X212427380Y-104013095D02*
X211427380Y-104013095D01*
X212427380Y-104584523D01*
X211427380Y-104584523D01*
X211522619Y-105013095D02*
X211475000Y-105060714D01*
X211427380Y-105155952D01*
X211427380Y-105394047D01*
X211475000Y-105489285D01*
X211522619Y-105536904D01*
X211617857Y-105584523D01*
X211713095Y-105584523D01*
X211855952Y-105536904D01*
X212427380Y-104965476D01*
X212427380Y-105584523D01*
X218592380Y-228668095D02*
X219401904Y-228668095D01*
X219497142Y-228715714D01*
X219544761Y-228763333D01*
X219592380Y-228858571D01*
X219592380Y-229049047D01*
X219544761Y-229144285D01*
X219497142Y-229191904D01*
X219401904Y-229239523D01*
X218592380Y-229239523D01*
X219592380Y-230239523D02*
X219592380Y-229668095D01*
X219592380Y-229953809D02*
X218592380Y-229953809D01*
X218735238Y-229858571D01*
X218830476Y-229763333D01*
X218878095Y-229668095D01*
X196186904Y-76702380D02*
X196186904Y-77511904D01*
X196139285Y-77607142D01*
X196091666Y-77654761D01*
X195996428Y-77702380D01*
X195805952Y-77702380D01*
X195710714Y-77654761D01*
X195663095Y-77607142D01*
X195615476Y-77511904D01*
X195615476Y-76702380D01*
X195186904Y-76797619D02*
X195139285Y-76750000D01*
X195044047Y-76702380D01*
X194805952Y-76702380D01*
X194710714Y-76750000D01*
X194663095Y-76797619D01*
X194615476Y-76892857D01*
X194615476Y-76988095D01*
X194663095Y-77130952D01*
X195234523Y-77702380D01*
X194615476Y-77702380D01*
X179436904Y-110552380D02*
X179436904Y-111361904D01*
X179389285Y-111457142D01*
X179341666Y-111504761D01*
X179246428Y-111552380D01*
X179055952Y-111552380D01*
X178960714Y-111504761D01*
X178913095Y-111457142D01*
X178865476Y-111361904D01*
X178865476Y-110552380D01*
X178484523Y-110552380D02*
X177865476Y-110552380D01*
X178198809Y-110933333D01*
X178055952Y-110933333D01*
X177960714Y-110980952D01*
X177913095Y-111028571D01*
X177865476Y-111123809D01*
X177865476Y-111361904D01*
X177913095Y-111457142D01*
X177960714Y-111504761D01*
X178055952Y-111552380D01*
X178341666Y-111552380D01*
X178436904Y-111504761D01*
X178484523Y-111457142D01*
X212501190Y-88976190D02*
X212501190Y-89452380D01*
X212834523Y-88452380D02*
X212501190Y-88976190D01*
X212167857Y-88452380D01*
X211310714Y-89452380D02*
X211882142Y-89452380D01*
X211596428Y-89452380D02*
X211596428Y-88452380D01*
X211691666Y-88595238D01*
X211786904Y-88690476D01*
X211882142Y-88738095D01*
X214151190Y-79973809D02*
X214627380Y-79973809D01*
X213627380Y-79640476D02*
X214151190Y-79973809D01*
X213627380Y-80307142D01*
X213722619Y-80592857D02*
X213675000Y-80640476D01*
X213627380Y-80735714D01*
X213627380Y-80973809D01*
X213675000Y-81069047D01*
X213722619Y-81116666D01*
X213817857Y-81164285D01*
X213913095Y-81164285D01*
X214055952Y-81116666D01*
X214627380Y-80545238D01*
X214627380Y-81164285D01*
M02*
